<svg width="12" height="10" viewBox="0 0 12 10" fill="none" xmlns="http://www.w3.org/2000/svg">
<path d="M3.92785 1.7342C3.92785 2.69196 3.15143 3.46838 2.19366 3.46838C1.2359 3.46838 0.459473 2.69196 0.459473 1.7342C0.459473 0.77643 1.2359 7.30341e-06 2.19366 7.30341e-06C3.15143 7.30341e-06 3.92785 0.77643 3.92785 1.7342Z" fill="currentColor"/>
<path d="M11.6134 1.73419C11.6134 2.69195 10.837 3.46838 9.87919 3.46838C8.92142 3.46838 8.145 2.69195 8.145 1.73419C8.145 0.776423 8.92142 0 9.87919 0C10.837 0 11.6134 0.776423 11.6134 1.73419Z" fill="currentcolor"/>
<path d="M8.61474 7.58605C9.32191 7.10729 9.86843 6.42657 10.1831 5.63265L10.2481 5.46998H12L11.6934 6.2366C11.2557 7.3308 10.5002 8.26875 9.52435 8.92945C8.5485 9.59016 7.39706 9.94331 6.21858 9.94334H5.78141C4.60293 9.94331 3.4515 9.59016 2.47565 8.92945C1.4998 8.26875 0.744302 7.3308 0.306629 6.2366L0 5.46998H1.75178L1.81679 5.63265C2.13143 6.4266 2.67797 7.10733 3.38517 7.58609C4.09236 8.06486 4.9274 8.31945 5.78141 8.31667H6.21858C7.07257 8.31942 7.90758 8.06482 8.61474 7.58605Z" fill="currentColor"/>
</svg>
